<svg width="51" height="52" viewBox="0 0 51 52" fill="none" xmlns="http://www.w3.org/2000/svg">
<g id="Group 6">
<path id="Vector" d="M19.5496 1.1542C28.0823 0.71381 44.0477 -0.166979 48.4744 8.71863C51.7229 15.2382 51.5583 33.942 49.5918 40.9624C47.0623 49.9516 39.5344 51.2296 31.1749 51.6182C23.9935 51.9464 9.38822 52.3608 4.33786 46.5925C-0.712494 40.8242 -0.270696 25.4277 0.38767 18.1742C1.5658 4.98823 6.77208 1.81048 19.5496 1.1542Z" fill="#246035"/>
<g id="4k1ul6">
<g id="Group">
<path id="Vector_2" d="M33.7912 10.3939C41.0679 14.0379 45.5205 22.9926 43.4935 30.9888C42.6445 34.4774 40.9466 37.9919 38.0446 40.2198C34.5189 42.9399 29.0268 43.7343 25.4664 40.8588C23.9851 39.6413 22.9629 37.802 22.755 35.3237C22.7203 35.0128 22.6423 34.676 22.4171 34.4774C20.2168 33.3635 18.5969 31.5501 17.8432 29.1668C17.5313 28.2601 17.6613 27.2843 17.6526 26.3517C17.6613 25.7904 17.6873 25.2291 17.7392 24.6765C17.7566 24.4951 17.7999 24.2965 17.9212 24.167C18.2503 23.8389 18.8827 24.0116 19.3072 24.0202C23.3873 24.4174 28.3164 25.3587 32.3706 26.1013C33.3235 26.2222 33.5574 26.5244 33.3754 27.4829C33.2282 28.4846 32.9423 29.4086 32.5525 30.3498C32.4312 30.6434 31.2791 32.0596 30.8979 32.5259C29.7804 33.8989 28.0998 34.6415 26.3673 34.8919C25.6743 34.9696 25.6656 35.3841 25.8302 36.0231C25.9861 37.0507 26.6012 37.7847 27.3982 38.4151C29.0181 39.8485 31.0971 40.0644 33.0982 39.4426C43.7447 35.6777 42.9391 19.5645 34.1637 14.1243C21.2476 5.67044 5.22163 18.7614 11.2855 32.9835C12.8621 36.6535 15.8768 39.6585 19.5757 41.187C20.0522 41.4633 20.5806 41.7137 20.7712 42.2404C21.1957 43.6134 20.0955 44.382 18.7874 44.0625C16.6044 43.4407 14.6813 41.8432 12.9488 40.4443C6.36511 34.3997 5.06571 23.8475 10.1507 16.4385C12.5936 13.019 16.6044 10.1694 20.7625 9.02952C25.0679 8.12283 29.7977 8.41643 33.7739 10.3939L33.7999 10.4112L33.7912 10.3939Z" fill="#9EF96E"/>
<path id="Vector_3" d="M31.1837 17.9153C31.8421 18.632 31.4263 21.3348 31.1837 22.302C30.7852 23.9426 30.456 23.4073 29.3385 23.2518C28.7668 23.1741 28.2904 23.0964 27.684 22.9151C27.4241 22.4919 28.2037 18.5284 28.6022 18.0362C29.148 17.354 30.5946 17.2849 31.175 17.9153H31.1837Z" fill="#9EF96E"/>
<path id="Vector_4" d="M24.5828 22.2418C24.0457 22.2418 21.5162 22.0518 21.3862 21.6459C21.3169 21.4387 21.984 17.6997 22.1399 17.3456C22.6943 16.0935 24.9379 16.2835 25.2498 17.6392C25.3624 18.1141 24.8253 22.0863 24.5828 22.2418Z" fill="#9EF96E"/>
<path id="Vector_5" d="M10.3239 29.5555L10.1507 29.2188C10.1507 29.2188 10.2806 29.2706 10.3239 29.5555Z" fill="#9EF96E"/>
</g>
</g>
</g>
</svg>
