<svg width="19" height="19" viewBox="0 0 19 19" fill="none" xmlns="http://www.w3.org/2000/svg">
<g id="instagram 1" clip-path="url(#clip0_3_199)">
<g id="Group">
<path id="Vector" d="M9.5 2.40446C11.903 2.40446 12.188 2.41346 13.1368 2.45696C14.1178 2.50196 15.128 2.72546 15.8428 3.44021C16.5643 4.16171 16.781 5.16221 16.826 6.14621C16.8695 7.09496 16.8785 7.37996 16.8785 9.78296C16.8785 12.186 16.8695 12.471 16.826 13.4197C16.7817 14.3955 16.553 15.4155 15.8428 16.1257C15.1213 16.8472 14.1215 17.064 13.1368 17.109C12.188 17.1525 11.903 17.1615 9.5 17.1615C7.097 17.1615 6.812 17.1525 5.86325 17.109C4.895 17.0647 3.8615 16.8307 3.15725 16.1257C2.4395 15.408 2.219 14.3977 2.174 13.4197C2.1305 12.471 2.1215 12.186 2.1215 9.78296C2.1215 7.37996 2.1305 7.09496 2.174 6.14621C2.21825 5.17421 2.44925 4.14821 3.15725 3.44021C3.87725 2.72021 4.8815 2.50196 5.86325 2.45696C6.812 2.41346 7.097 2.40446 9.5 2.40446ZM9.5 0.782959C7.05575 0.782959 6.749 0.793459 5.789 0.836959C4.39775 0.900709 3.01625 1.28771 2.0105 2.29346C1.001 3.30296 0.61775 4.68146 0.554 6.07196C0.5105 7.03196 0.5 7.33871 0.5 9.78296C0.5 12.2272 0.5105 12.534 0.554 13.494C0.61775 14.8837 1.00625 16.269 2.0105 17.2725C3.01925 18.2812 4.4 18.6652 5.789 18.729C6.749 18.7725 7.05575 18.783 9.5 18.783C11.9443 18.783 12.251 18.7725 13.211 18.729C14.6015 18.6652 15.9845 18.2775 16.9895 17.2725C17.9998 16.2622 18.3822 14.8845 18.446 13.494C18.4895 12.534 18.5 12.2272 18.5 9.78296C18.5 7.33871 18.4895 7.03196 18.446 6.07196C18.3822 4.68071 17.9945 3.29846 16.9895 2.29346C15.9823 1.28621 14.5977 0.899959 13.211 0.836959C12.251 0.793459 11.9443 0.782959 9.5 0.782959Z" fill="#FAFCFF"/>
<path id="Vector_2" d="M9.5 5.16138C6.94775 5.16138 4.8785 7.23063 4.8785 9.78288C4.8785 12.3351 6.94775 14.4044 9.5 14.4044C12.0522 14.4044 14.1215 12.3351 14.1215 9.78288C14.1215 7.23063 12.0522 5.16138 9.5 5.16138ZM9.5 12.7829C7.84325 12.7829 6.5 11.4396 6.5 9.78288C6.5 8.12613 7.84325 6.78288 9.5 6.78288C11.1567 6.78288 12.5 8.12613 12.5 9.78288C12.5 11.4396 11.1567 12.7829 9.5 12.7829Z" fill="#FAFCFF"/>
<path id="Vector_3" d="M14.3045 6.05844C14.901 6.05844 15.3845 5.57491 15.3845 4.97844C15.3845 4.38197 14.901 3.89844 14.3045 3.89844C13.708 3.89844 13.2245 4.38197 13.2245 4.97844C13.2245 5.57491 13.708 6.05844 14.3045 6.05844Z" fill="#FAFCFF"/>
</g>
</g>
<defs>
<clipPath id="clip0_3_199">
<rect width="18" height="18" fill="white" transform="translate(0.5 0.782959)"/>
</clipPath>
</defs>
</svg>
