<svg width="19" height="19" viewBox="0 0 19 19" fill="none" xmlns="http://www.w3.org/2000/svg">
<g id="linkedin 1" clip-path="url(#clip0_3_188)">
<g id="Group">
<path id="Path_2525" d="M17.7515 16.971H17.9218L17.5955 16.4775C17.795 16.4775 17.9008 16.3508 17.9023 16.1955C17.9023 16.1895 17.9023 16.1828 17.9015 16.1768C17.9015 15.9653 17.774 15.864 17.5123 15.864H17.0893V16.971H17.2483V16.4888H17.444L17.7515 16.971ZM17.4328 16.3635H17.2483V15.9893H17.4823C17.603 15.9893 17.741 16.0088 17.741 16.167C17.741 16.3485 17.6023 16.3635 17.4328 16.3635Z" fill="#FAFCFF"/>
<path id="Path_2520" d="M13.4683 15.0877H11.213V11.556C11.213 10.7137 11.198 9.62999 10.04 9.62999C8.8655 9.62999 8.6855 10.5472 8.6855 11.4952V15.0877H6.431V7.82474H8.59625V8.81699H8.62625C9.068 8.06249 9.8885 7.61174 10.7623 7.64399C13.0483 7.64399 13.469 9.14774 13.469 11.103L13.4683 15.0877ZM3.88625 6.83174C3.16325 6.83174 2.5775 6.24599 2.5775 5.52299C2.5775 4.79999 3.16325 4.21424 3.88625 4.21424C4.60925 4.21424 5.195 4.79999 5.195 5.52299C5.195 6.24599 4.60925 6.83174 3.88625 6.83174ZM5.0135 15.0877H2.756V7.82474H5.0135V15.0877ZM14.5925 2.12024H1.62275C1.01 2.11349 0.5075 2.60474 0.5 3.21749V16.2405C0.5075 16.854 1.01 17.3452 1.62275 17.3385H14.5925C15.2068 17.346 15.7115 16.8547 15.7198 16.2405V3.21674C15.7108 2.60249 15.206 2.11124 14.5925 2.11949" fill="#FAFCFF"/>
<path id="Path_2526" d="M17.4523 15.3713C16.8793 15.3766 16.4188 15.8461 16.4248 16.4191C16.43 16.9921 16.8995 17.4526 17.4725 17.4466C18.0455 17.4413 18.506 16.9718 18.5 16.3988C18.4948 15.8333 18.0372 15.3766 17.4725 15.3713H17.4523ZM17.4763 17.3273C16.9738 17.3356 16.5358 16.9358 16.5275 16.4333C16.5193 15.9308 16.9198 15.5168 17.4223 15.5086C17.9248 15.5003 18.3388 15.9008 18.347 16.4033C18.347 16.4086 18.347 16.4131 18.347 16.4183C18.3575 16.9096 17.9675 17.3168 17.4763 17.3273H17.453H17.4763Z" fill="#FAFCFF"/>
</g>
</g>
<defs>
<clipPath id="clip0_3_188">
<rect width="18" height="18" fill="white" transform="translate(0.5 0.782959)"/>
</clipPath>
</defs>
</svg>
