<svg width="195" height="43" viewBox="0 0 195 43" fill="none" xmlns="http://www.w3.org/2000/svg">
<path d="M56 33.1632V9.92563C56 9.22807 56.398 8.86185 57.0672 8.86185H72.9173C73.6171 8.86185 73.9845 9.25859 73.9845 9.92563V12.0183C73.9845 12.7159 73.5865 13.0821 72.9173 13.0821H61.3621V19.0593H71.6533C72.3181 19.0593 72.6855 19.4561 72.6855 20.1231V22.0806C72.6855 22.7782 72.3181 23.1444 71.6533 23.1444H61.3621V30.0154H73.3853C74.0501 30.0154 74.4525 30.4121 74.4525 31.0792V33.1719C74.4525 33.8694 74.0545 34.2357 73.3853 34.2357H57.0672C56.3674 34.2357 56 33.8389 56 33.1719V33.1632Z" fill="#9EF96E"/>
<path d="M74.4175 23.7374C74.4175 17.5639 78.9136 13.3132 85.4085 13.3132C88.2732 13.3132 91.3042 14.111 92.9355 15.2402C93.5347 15.6369 93.6703 15.9377 93.3335 16.6353L92.4676 18.8239C92.2008 19.4212 91.6672 19.5869 91.0374 19.2555C88.973 18.1263 87.5078 17.6947 85.7409 17.6947C81.9795 17.6947 79.7446 19.9836 79.7446 23.8028C79.7446 27.6219 82.1107 30.1767 85.8721 30.1767C87.5385 30.1767 89.0342 29.7102 91.1336 28.5157C91.6978 28.1843 92.332 28.35 92.5638 28.9473L93.4648 31.1708C93.7972 31.9686 93.4998 32.2345 93.0318 32.5964C91.4004 33.7256 88.3345 34.5539 85.6053 34.5539C79.0798 34.5539 74.4175 30.0372 74.4175 23.733V23.7374Z" fill="#9EF96E"/>
<path d="M93.7316 23.7722C93.7316 17.5639 98.2277 13.3175 104.788 13.3175C111.349 13.3175 115.91 17.5683 115.91 23.7722C115.91 29.9762 111.248 34.5627 104.788 34.5627C98.3283 34.5627 93.7316 29.9151 93.7316 23.7722ZM110.583 23.7722C110.583 19.988 108.418 17.6991 104.823 17.6991C101.228 17.6991 99.0631 19.988 99.0631 23.7722C99.0631 27.5565 101.359 30.1811 104.823 30.1811C108.287 30.1811 110.583 27.526 110.583 23.7722Z" fill="#9EF96E"/>
<path d="M118.373 33.3637V10.1916C118.373 9.62917 118.675 9.26295 119.405 9.1278C121.237 8.76158 124.198 8.49564 127.396 8.49564C135.688 8.49564 140.814 14.0718 140.814 21.4092C140.814 28.7467 135.684 34.2226 127.728 34.2226H119.234C118.67 34.2226 118.368 33.8912 118.368 33.3594L118.373 33.3637ZM127.767 31.7724C133.995 31.7724 137.892 27.5216 137.892 21.4136C137.892 14.9394 133.995 10.9894 127.103 10.9894C124.903 10.9894 123.004 11.1202 121.307 11.3862V31.768H127.767V31.7724Z" fill="#9EF96E"/>
<path d="M142.052 23.8376C142.052 17.6947 146.447 13.3132 152.61 13.3132C158.772 13.3132 163.233 17.6947 163.233 23.8376C163.233 29.9805 158.672 34.5583 152.61 34.5583C146.548 34.5583 142.052 29.78 142.052 23.8376ZM160.268 23.8376C160.268 18.9591 157.373 15.9029 152.64 15.9029C147.908 15.9029 145.013 18.9547 145.013 23.8376C145.013 28.7206 148.074 31.9686 152.64 31.9686C157.206 31.9686 160.268 28.5505 160.268 23.8376Z" fill="#9EF96E"/>
<path d="M167.327 26.2922V16.2342H163.697C163.163 16.2342 162.831 15.9334 162.831 15.371V14.5077C162.831 13.9759 163.163 13.6445 163.697 13.6445H167.327V9.72944C167.327 9.19755 167.629 8.86621 168.193 8.86621H169.391C169.925 8.86621 170.257 9.19755 170.257 9.72944V13.6445H176.385C176.918 13.6445 177.251 13.9453 177.251 14.5077V15.371C177.251 15.9029 176.949 16.2342 176.385 16.2342H170.257V26.0262C170.257 29.7451 171.556 31.6372 176.485 31.6372C176.984 31.6372 177.286 31.9686 177.251 32.5005L177.216 33.3637C177.181 33.9261 176.883 34.2269 176.35 34.2269C170.021 34.2269 167.327 31.6721 167.327 26.2922Z" fill="#9EF96E"/>
<path d="M177.784 33.3637V32.9321C177.784 32.6007 177.885 32.4002 178.152 32.034L190.175 16.2342H179.053C178.519 16.2342 178.187 15.9334 178.187 15.371V14.5077C178.187 13.9758 178.519 13.6445 179.053 13.6445H193.407C193.941 13.6445 194.273 13.9453 194.273 14.5077V14.9045C194.273 15.2358 194.173 15.4669 193.906 15.8331L181.883 31.6329H194.006C194.54 31.6329 194.872 31.9337 194.872 32.4961V33.3593C194.872 33.8912 194.571 34.2226 194.006 34.2226H178.655C178.121 34.2226 177.789 33.9217 177.789 33.3593L177.784 33.3637Z" fill="#9EF96E"/>
<path d="M16.9364 0.474813C24.0065 0.109909 37.2351 -0.619898 40.903 6.74257C43.5947 12.1446 43.4583 27.6423 41.8289 33.4593C39.733 40.9076 33.4955 41.9665 26.569 42.2885C20.6186 42.5604 8.51682 42.9038 4.33218 38.1243C0.147529 33.3448 0.513596 20.5875 1.05911 14.5773C2.03529 3.65162 6.34913 1.01859 16.9364 0.474813Z" fill="#9EF96E"/>
<path d="M28.7368 8.13064C34.7661 11.15 38.4555 18.5697 36.7759 25.1953C36.0725 28.0859 34.6656 30.9979 32.2611 32.8439C29.3397 35.0977 24.789 35.756 21.8389 33.3734C20.6115 32.3645 19.7646 30.8405 19.5923 28.7871C19.5636 28.5295 19.499 28.2504 19.3124 28.0859C17.4892 27.1629 16.1469 25.6603 15.5225 23.6856C15.2641 22.9343 15.3717 22.1258 15.3646 21.353C15.3717 20.888 15.3933 20.4229 15.4363 19.965C15.4507 19.8147 15.4866 19.6502 15.5871 19.5428C15.8598 19.2709 16.3838 19.414 16.7355 19.4212C20.1163 19.7503 24.2004 20.5302 27.5596 21.1455C28.3492 21.2457 28.543 21.4961 28.3922 22.2903C28.2702 23.1203 28.0334 23.8859 27.7104 24.6658C27.6099 24.9091 26.6552 26.0825 26.3394 26.4688C25.4135 27.6065 24.021 28.2218 22.5854 28.4293C22.0112 28.4937 22.004 28.8371 22.1404 29.3666C22.2696 30.2181 22.7792 30.8262 23.4396 31.3485C24.7818 32.5363 26.5045 32.7151 28.1626 32.2C36.9841 29.0804 36.3165 15.7292 29.0454 11.2216C18.3433 4.21686 5.06445 15.0638 10.0889 26.8481C11.3953 29.8889 13.8931 32.3789 16.958 33.6453C17.3528 33.8743 17.7907 34.0817 17.9486 34.5182C18.3003 35.6558 17.3887 36.2926 16.3049 36.0279C14.4961 35.5127 12.9026 34.1891 11.467 33.03C6.01192 28.0215 4.93525 19.2781 9.14861 13.1391C11.1727 10.3058 14.4961 7.94461 17.9414 7.00015C21.5088 6.24888 25.4278 6.49215 28.7224 8.13064L28.744 8.14495L28.7368 8.13064Z" fill="#246035"/>
<path d="M26.5762 14.3626C27.1217 14.9565 26.7772 17.196 26.5762 17.9973C26.246 19.3568 25.9733 18.9132 25.0473 18.7844C24.5736 18.72 24.1788 18.6556 23.6764 18.5053C23.4611 18.1547 24.1071 14.8706 24.4372 14.4628C24.8894 13.8975 26.0881 13.8403 26.569 14.3626H26.5762Z" fill="#246035"/>
<path d="M21.1068 17.9472C20.6618 17.9472 18.5659 17.7898 18.4582 17.4536C18.4008 17.2818 18.9535 14.1837 19.0827 13.8904C19.5421 12.8529 21.4011 13.0103 21.6595 14.1336C21.7528 14.5272 21.3078 17.8185 21.1068 17.9472Z" fill="#246035"/>
<path d="M9.29218 24.0075L9.14862 23.7285C9.14862 23.7285 9.25629 23.7714 9.29218 24.0075Z" fill="#246035"/>
</svg>
