<svg width="19" height="19" viewBox="0 0 19 19" fill="none" xmlns="http://www.w3.org/2000/svg">
<g id="medium 1" clip-path="url(#clip0_3_193)">
<g id="Group">
<g id="Group_2">
<path id="Vector" d="M10.6528 9.78288C10.6528 12.6059 8.38025 14.8941 5.576 14.8941C2.7725 14.8941 0.5 12.6059 0.5 9.78288C0.5 6.95988 2.7725 4.67163 5.57675 4.67163C8.38025 4.67163 10.6528 6.95988 10.6528 9.78288Z" fill="#FAFCFF"/>
<path id="Vector_2" d="M16.2222 9.78293C16.2222 12.4402 15.086 14.5942 13.6843 14.5942C12.2825 14.5942 11.1462 12.4402 11.1462 9.78293C11.1462 7.12568 12.2825 4.97168 13.6843 4.97168C15.0853 4.97168 16.2222 7.12568 16.2222 9.78293Z" fill="#FAFCFF"/>
<path id="Vector_3" d="M18.5 9.78292C18.5 12.1634 18.1002 14.0939 17.6075 14.0939C17.1147 14.0939 16.715 12.1642 16.715 9.78292C16.715 7.40167 17.1147 5.47192 17.6075 5.47192C18.1002 5.47192 18.5 7.40242 18.5 9.78292Z" fill="#FAFCFF"/>
</g>
</g>
</g>
<defs>
<clipPath id="clip0_3_193">
<rect width="18" height="18" fill="white" transform="translate(0.5 0.782959)"/>
</clipPath>
</defs>
</svg>
