<svg width="39" height="39" viewBox="0 0 39 39" fill="none" xmlns="http://www.w3.org/2000/svg">
<path d="M19.7764 34.7059V12.5968M17.2035 11.2705C17.4772 11.3319 17.7656 11.2566 17.9627 11.0596C18.1597 10.8625 18.2349 10.574 18.1736 10.3004C17.9279 9.29688 17.023 5.93666 16.0938 5.00745C14.9361 3.84978 13.0519 3.84496 11.9 4.99691C10.7481 6.14877 10.7528 8.03293 11.9106 9.19069C12.855 10.1351 16.2 11.0248 17.2035 11.2705ZM20.0132 10.3003C19.9518 10.574 20.0271 10.8624 20.2241 11.0595C20.4212 11.2565 20.7097 11.3317 20.9833 11.2704C21.9868 11.0247 25.347 10.1198 26.2762 9.19061C27.4339 8.03294 27.4387 6.14877 26.2868 4.99683C25.1349 3.84496 23.2508 3.84962 22.093 5.00738C21.1486 5.95179 20.2588 9.29683 20.0132 10.3003ZM5.40546 20.335H33.5945C34.2051 20.335 34.7 19.8401 34.7 19.2296V13.7023C34.7 13.0918 34.2051 12.5968 33.5945 12.5968H5.40546C4.79493 12.5968 4.3 13.0918 4.3 13.7023V19.2296C4.3 19.8401 4.79493 20.335 5.40546 20.335ZM31.9364 20.335V33.6005C31.9364 34.211 31.4414 34.7059 30.8309 34.7059H8.16909C7.55857 34.7059 7.06364 34.211 7.06364 33.6005V20.335H31.9364Z" stroke="black" stroke-width="2" stroke-linecap="round" stroke-linejoin="round"/>
</svg>
