<svg width="86" height="86" viewBox="0 0 86 86" fill="none" xmlns="http://www.w3.org/2000/svg">
<g id="Camada_1" clip-path="url(#clip0_3_668)">
<g id="rH2UF5">
<path id="Vector" d="M29.12 0.425862C32.62 0.085862 35.66 1.20586 38.51 3.17586C39.86 4.10586 40.74 5.91586 42.56 5.91586C44.25 5.91586 46.14 3.38586 47.82 2.38586C55.85 -2.37414 66.22 2.13586 67.77 11.3759C68.08 13.2259 67.32 15.5359 69.04 16.8859C70.16 17.7659 73.67 17.5559 75.47 18.0359C83.63 20.2259 87.46 29.8859 83.5 37.2559C82.09 39.8859 78.66 41.2859 80.05 44.5559C80.34 45.2259 82.57 47.0259 83.35 48.4259C87.51 55.8959 83.81 65.6359 75.47 67.8959C73.56 68.4159 70.37 67.9859 69.04 69.0459C67.42 70.3459 67.95 73.6559 67.43 75.8059C65.44 84.0059 55.93 87.7659 48.53 84.0359C46.61 83.0659 44.34 80.0159 42.56 80.0159C40.78 80.0159 38.98 82.5459 37.3 83.5459C30.96 87.3059 22.6 85.4659 18.92 78.9659C16.9 75.3959 17.87 73.9659 17.16 70.7559C16.45 67.5459 12.51 68.5559 9.98 67.9659C1.58 66.0059 -2.52 56.2059 1.63 48.6759C2.66 46.8059 5.23 44.9759 5.31 43.1559C5.4 40.9559 2.61 39.1459 1.49 36.9959C-2.42 29.4759 1.68 19.9059 9.98 17.9659C11.56 17.5959 14.83 17.6959 15.87 17.0859C17.83 15.9459 17.02 13.0859 17.27 11.3159C18.1 5.61586 23.49 0.965862 29.12 0.425862Z" fill="#9EF96E"/>
</g>
<g id="4k1ul6">
<g id="Group">
<path id="Vector_2" d="M52.09 24.4961C60.49 28.7161 65.63 39.0861 63.29 48.3461C62.31 52.3861 60.35 56.4561 57 59.0361C52.93 62.1861 46.59 63.1061 42.48 59.7761C40.77 58.3661 39.59 56.2361 39.35 53.3661C39.31 53.0061 39.22 52.6161 38.96 52.3861C36.42 51.0961 34.55 48.9961 33.68 46.2361C33.32 45.1861 33.47 44.0561 33.46 42.9761C33.47 42.3261 33.5 41.6761 33.56 41.0361C33.58 40.8261 33.63 40.5961 33.77 40.4461C34.15 40.0661 34.88 40.2661 35.37 40.2761C40.08 40.7361 45.77 41.8261 50.45 42.6861C51.55 42.8261 51.82 43.1761 51.61 44.2861C51.44 45.4461 51.11 46.5161 50.66 47.6061C50.52 47.9461 49.19 49.5861 48.75 50.1261C47.46 51.7161 45.52 52.5761 43.52 52.8661C42.72 52.9561 42.71 53.4361 42.9 54.1761C43.08 55.3661 43.79 56.2161 44.71 56.9461C46.58 58.6061 48.98 58.8561 51.29 58.1361C63.58 53.7761 62.65 35.1161 52.52 28.8161C37.61 19.0261 19.11 34.1861 26.11 50.6561C27.93 54.9061 31.41 58.3861 35.68 60.1561C36.23 60.4761 36.84 60.7661 37.06 61.3761C37.55 62.9661 36.28 63.8561 34.77 63.4861C32.25 62.7661 30.03 60.9161 28.03 59.2961C20.43 52.2961 18.93 40.0761 24.8 31.4961C27.62 27.5361 32.25 24.2361 37.05 22.9161C42.02 21.8661 47.48 22.2061 52.07 24.4961L52.1 24.5161L52.09 24.4961Z" fill="#246035"/>
<path id="Vector_3" d="M49.08 33.1961C49.84 34.0261 49.36 37.1561 49.08 38.2761C48.62 40.1761 48.24 39.5561 46.95 39.3761C46.29 39.2861 45.74 39.1961 45.04 38.9861C44.74 38.4961 45.64 33.9061 46.1 33.3361C46.73 32.5461 48.4 32.4661 49.07 33.1961H49.08Z" fill="#246035"/>
<path id="Vector_4" d="M41.46 38.2162C40.84 38.2162 37.92 37.9962 37.77 37.5262C37.69 37.2862 38.46 32.9562 38.64 32.5462C39.28 31.0962 41.87 31.3162 42.23 32.8862C42.36 33.4362 41.74 38.0362 41.46 38.2162Z" fill="#246035"/>
<path id="Vector_5" d="M25 46.6761L24.8 46.2861C24.8 46.2861 24.95 46.3461 25 46.6761Z" fill="#246035"/>
</g>
</g>
</g>
<defs>
<clipPath id="clip0_3_668">
<rect width="85.06" height="85.11" fill="white" transform="translate(0 0.365967)"/>
</clipPath>
</defs>
</svg>
