<svg width="19" height="19" viewBox="0 0 19 19" fill="none" xmlns="http://www.w3.org/2000/svg">
<g id="whatsapp 1" clip-path="url(#clip0_3_184)">
<g id="WA_Logo">
<g id="Group">
<path id="Vector" fill-rule="evenodd" clip-rule="evenodd" d="M15.8472 3.39896C14.1627 1.71296 11.9232 0.783709 9.5375 0.782959C4.62125 0.782959 0.619998 4.78346 0.617748 9.70196C0.616998 11.274 1.028 12.8085 1.80875 14.1615L0.542747 18.783L5.27075 17.5425C6.5735 18.2535 8.0405 18.6277 9.533 18.6285H9.53675C14.4522 18.6285 18.4542 14.6272 18.4565 9.70871C18.458 7.32596 17.531 5.08421 15.8472 3.39896ZM9.5375 17.1217H9.5345C8.204 17.1217 6.89975 16.764 5.76125 16.0882L5.4905 15.9277L2.68475 16.6635L3.434 13.9275L3.25775 13.647C2.51525 12.4665 2.12375 11.1022 2.1245 9.70196C2.126 5.61446 5.45225 2.28896 9.54125 2.28896C11.5212 2.28896 13.3827 3.06146 14.7822 4.46246C16.1817 5.86421 16.952 7.72646 16.9512 9.70721C16.949 13.7962 13.6235 17.1217 9.5375 17.1217ZM13.604 11.5695C13.3812 11.4577 12.2855 10.9185 12.0807 10.8442C11.8767 10.77 11.7282 10.7325 11.579 10.9552C11.4297 11.178 11.0037 11.6805 10.8732 11.8297C10.7435 11.9782 10.613 11.997 10.3902 11.8852C10.1675 11.7735 9.449 11.5387 8.59775 10.779C7.9355 10.188 7.48775 9.45821 7.358 9.23471C7.22825 9.01121 7.3445 8.89121 7.4555 8.78021C7.556 8.68046 7.67825 8.51996 7.79 8.38946C7.9025 8.26046 7.93925 8.16746 8.01425 8.01821C8.0885 7.86971 8.05175 7.73921 7.9955 7.62746C7.93925 7.51646 7.49375 6.41921 7.3085 5.97296C7.12775 5.53796 6.944 5.59721 6.80675 5.59046C6.677 5.58371 6.5285 5.58296 6.37925 5.58296C6.23075 5.58296 5.98925 5.63846 5.78525 5.86196C5.58125 6.08546 5.00525 6.62471 5.00525 7.72121C5.00525 8.81846 5.804 9.87821 5.915 10.0267C6.026 10.1752 7.48625 12.4267 9.722 13.392C10.2537 13.6215 10.6692 13.7587 10.9925 13.8615C11.5265 14.031 12.0125 14.007 12.3965 13.95C12.8247 13.8862 13.715 13.4107 13.901 12.8902C14.087 12.3697 14.087 11.9227 14.0307 11.8305C13.9752 11.7367 13.8267 11.6812 13.604 11.5695Z" fill="#FAFCFF"/>
</g>
</g>
</g>
<defs>
<clipPath id="clip0_3_184">
<rect width="18" height="18" fill="white" transform="translate(0.5 0.782959)"/>
</clipPath>
</defs>
</svg>
